<svg width="13.33" height="9.07" viewBox="0 0 14 10" fill="none" xmlns="http://www.w3.org/2000/svg">
<path d="M5.4487 9.73026C5.31743 9.73053 5.1874 9.70487 5.06608 9.65476C4.94475 9.60465 4.83452 9.53108 4.7417 9.43826L0.499696 5.19526C0.404122 5.10308 0.327864 4.99279 0.27537 4.87082C0.222877 4.74886 0.1952 4.61766 0.193953 4.48488C0.192706 4.3521 0.217915 4.22041 0.268109 4.09748C0.318303 3.97455 0.392477 3.86284 0.486302 3.76888C0.580128 3.67493 0.691726 3.60059 0.814585 3.55023C0.937444 3.49986 1.0691 3.47446 1.20188 3.47552C1.33466 3.47658 1.4659 3.50407 1.58794 3.55639C1.70998 3.60872 1.82038 3.68482 1.9127 3.78026L5.44769 7.31526L11.8127 0.952261C12.0002 0.76462 12.2546 0.659151 12.5198 0.659058C12.7851 0.658964 13.0396 0.764252 13.2272 0.95176C13.4148 1.13927 13.5203 1.39364 13.5204 1.65891C13.5205 1.92418 13.4152 2.17862 13.2277 2.36626L6.15569 9.43826C6.06287 9.53108 5.95264 9.60465 5.83131 9.65476C5.70999 9.70487 5.57996 9.73053 5.4487 9.73026Z" fill="#2FAB73"/>
</svg>
