<svg width="20" height="20" viewBox="0 0 20 21" fill="none" xmlns="http://www.w3.org/2000/svg">
<path d="M10 0.233887C4.486 0.233887 0 4.71989 0 10.2339C0 15.7479 4.486 20.2339 10 20.2339C15.514 20.2339 20 15.7479 20 10.2339C20 4.71989 15.514 0.233887 10 0.233887ZM8.001 14.6469L4.99545 11.6478C4.6047 11.2579 4.60391 10.6251 4.99369 10.2342C5.38371 9.84307 6.01701 9.84235 6.40793 10.2326L7.999 11.8209L12.586 7.23389C12.9765 6.84342 13.6095 6.84342 14 7.23389C14.3905 7.62435 14.3905 8.25742 14 8.64789L8.001 14.6469Z" fill="#2FAB73"/>
</svg>
